<svg xmlns="http://www.w3.org/2000/svg" viewBox="0 0 16 16"><path d="M7,3H6V0H7ZM15,3H14V0H15ZM2,4H3V3H2ZM10,4H11V3H10ZM1,7H0V6H1ZM3,7H2V4H1V3H0V2H1V3H2V2H3V3H4V2H5V3H4V4H3ZM11,7H10V4H9V3H8V2H9V3H10V2H11V3H12V2H13V3H12V4H11ZM6,8H7V7H6ZM14,8H15V7H14ZM7,11H6V8H5V7H4V6H5V7H6V6H7V7H8V6H9V7H8V8H7ZM15,11H14V8H13V7H12V6H13V7H14V6H15V7H16V8H15ZM2,12H3V11H2ZM10,12H11V11H10ZM1,15H0V14H1ZM3,15H2V12H1V11H0V10H1V11H2V10H3V11H4V10H5V11H4V12H3ZM11,15H10V12H9V11H8V10H9V11H10V10H11V11H12V10H13V11H12V12H11ZM8,16H7V15H6V16H5V15H4V14H5V15H6V14H7V15H8V14H9V15H8ZM16,16H15V15H14V16H13V15H12V14H13V15H14V14H15V15H16Z" /></svg>