<svg xmlns="http://www.w3.org/2000/svg" viewBox="0 0 16 16"><path d="M2,2H1V1H2ZM6,2H5V1H6ZM10,2H9V1H10ZM14,2H13V1H14ZM4,4H3V3H4ZM8,4H7V3H8ZM12,4H11V3H12ZM16,4H15V3H16ZM2,6H1V5H2ZM6,6H5V5H6ZM10,6H9V5H10ZM14,6H13V5H14ZM4,8H3V7H4ZM8,8H7V7H8ZM12,8H11V7H12ZM16,8H15V7H16ZM2,10H1V9H2ZM6,10H5V9H6ZM10,10H9V9H10ZM14,10H13V9H14ZM4,12H3V11H4ZM8,12H7V11H8ZM12,12H11V11H12ZM16,12H15V11H16ZM2,14H1V13H2ZM6,14H5V13H6ZM10,14H9V13H10ZM14,14H13V13H14ZM4,16H3V15H4ZM8,16H7V15H8ZM12,16H11V15H12ZM16,16H15V15H16Z" /></svg>