<svg xmlns="http://www.w3.org/2000/svg" viewBox="0 0 16 16"><path d="M1,1H0V0H1ZM3,1H2V0H3ZM5,1H4V0H5ZM7,1H6V0H7ZM9,1H8V0H9ZM11,1H10V0H11ZM13,1H12V0H13ZM15,1H14V0H15ZM1,3H0V2H1ZM9,3H8V2H9ZM5,7H4V6H5ZM9,7H8V6H7V5H6V4H5V3H4V4H3V5H2V6H1V7H0V6H1V5H2V4H3V3H4V2H5V3H6V4H7V5H8V6H9V5H10V4H11V3H12V2H13V3H14V4H15V5H16V6H15V5H14V4H13V3H12V4H11V5H10V6H9ZM13,7H12V6H13ZM1,9H0V8H1ZM3,9H2V8H3ZM5,9H4V8H5ZM7,9H6V8H7ZM9,9H8V8H9ZM11,9H10V8H11ZM13,9H12V8H13ZM15,9H14V8H15ZM1,11H0V10H1ZM9,11H8V10H9ZM5,15H4V14H5ZM9,15H8V14H7V13H6V12H5V11H4V12H3V13H2V14H1V15H0V14H1V13H2V12H3V11H4V10H5V11H6V12H7V13H8V14H9V13H10V12H11V11H12V10H13V11H14V12H15V13H16V14H15V13H14V12H13V11H12V12H11V13H10V14H9ZM13,15H12V14H13Z" /></svg>