<svg xmlns="http://www.w3.org/2000/svg" viewBox="0 0 16 16"><path d="M2,2H1V1H2ZM4,2H3V1H4ZM6,2H5V1H6ZM8,2H7V1H8ZM10,2H9V1H10ZM12,2H11V1H12ZM14,2H13V1H14ZM16,2H15V1H16ZM2,4H1V3H2ZM4,4H3V3H4ZM6,4H5V3H6ZM8,4H7V3H8ZM10,4H9V3H10ZM12,4H11V3H12ZM14,4H13V3H14ZM16,4H15V3H16ZM2,6H1V5H2ZM4,6H3V5H4ZM6,6H5V5H6ZM8,6H7V5H8ZM10,6H9V5H10ZM12,6H11V5H12ZM14,6H13V5H14ZM16,6H15V5H16ZM2,8H1V7H2ZM4,8H3V7H4ZM6,8H5V7H6ZM8,8H7V7H8ZM10,8H9V7H10ZM12,8H11V7H12ZM14,8H13V7H14ZM16,8H15V7H16ZM2,10H1V9H2ZM4,10H3V9H4ZM6,10H5V9H6ZM8,10H7V9H8ZM10,10H9V9H10ZM12,10H11V9H12ZM14,10H13V9H14ZM16,10H15V9H16ZM2,12H1V11H2ZM4,12H3V11H4ZM6,12H5V11H6ZM8,12H7V11H8ZM10,12H9V11H10ZM12,12H11V11H12ZM14,12H13V11H14ZM16,12H15V11H16ZM2,14H1V13H2ZM4,14H3V13H4ZM6,14H5V13H6ZM8,14H7V13H8ZM10,14H9V13H10ZM12,14H11V13H12ZM14,14H13V13H14ZM16,14H15V13H16ZM2,16H1V15H2ZM4,16H3V15H4ZM6,16H5V15H6ZM8,16H7V15H8ZM10,16H9V15H10ZM12,16H11V15H12ZM14,16H13V15H14ZM16,16H15V15H16Z" /></svg>