<svg xmlns="http://www.w3.org/2000/svg" viewBox="0 0 16 16"><path d="M16,16H0V15H2V14H1V13H0V11H1V10H2V9H3V8H0V7H2V6H1V5H0V3H1V2H2V1H3V0H4V1H3V2H2V3H5V2H6V1H7V0H8V1H7V2H6V3H9V2H10V1H11V0H12V1H11V2H10V3H13V2H14V1H15V0H16V1H15V2H14V3H16V4H13V5H14V6H15V7H16V9H15V10H14V11H16V12H13V13H14V14H15V15H16ZM6,7V6H5V5H4V4H1V5H2V6H3V7ZM10,7V6H9V5H8V4H5V5H6V6H7V7ZM14,7V6H13V5H12V4H9V5H10V6H11V7ZM5,11V10H6V9H7V8H4V9H3V10H2V11ZM9,11V10H10V9H11V8H8V9H7V10H6V11ZM13,11V10H14V9H15V8H12V9H11V10H10V11ZM6,15V14H5V13H4V12H1V13H2V14H3V15ZM10,15V14H9V13H8V12H5V13H6V14H7V15ZM14,15V14H13V13H12V12H9V13H10V14H11V15Z" /></svg>